# This file uses centimeters as units for non-parametric coordinates.

# mtllib coin.mtl
g default
v 1.803922 6.089191 -0.675165
v 0.689037 6.915622 -0.675165
v -0.689037 6.915622 -0.675165
v -1.803922 6.089191 -0.675165
v -2.229770 4.751998 -0.675165
v -1.803922 3.414805 -0.675165
v -0.689037 2.588375 -0.675165
v 0.689037 2.588375 -0.675165
v 1.803922 3.414805 -0.675165
v 2.229769 4.751998 -0.675165
v 2.405229 6.534922 -0.675165
v 0.918715 7.636829 -0.675165
v -0.918716 7.636829 -0.675165
v -2.405230 6.534922 -0.675165
v -2.973027 4.751998 -0.675165
v -2.405229 2.969074 -0.675165
v -0.918716 1.867167 -0.675165
v 0.918716 1.867167 -0.675165
v 2.405229 2.969074 -0.675165
v 2.973026 4.751998 -0.675165
v 2.405229 6.534922 0.675165
v 0.918715 7.636829 0.675165
v -0.918716 7.636829 0.675165
v -2.405230 6.534922 0.675165
v -2.973027 4.751998 0.675165
v -2.405229 2.969074 0.675165
v -0.918716 1.867167 0.675165
v 0.918716 1.867167 0.675165
v 2.405229 2.969074 0.675165
v 2.973026 4.751998 0.675165
v 1.803922 6.089191 0.675165
v 0.689037 6.915622 0.675165
v -0.689037 6.915622 0.675165
v -1.803922 6.089191 0.675165
v -2.229770 4.751998 0.675165
v -1.803922 3.414805 0.675165
v -0.689037 2.588375 0.675165
v 0.689037 2.588375 0.675165
v 1.803922 3.414805 0.675165
v 2.229769 4.751998 0.675165
v 0.165545 6.194414 -0.175165
v 0.433402 5.643460 -0.175165
v -0.165545 6.194413 -0.175165
v -0.433403 5.643460 -0.175165
v -0.535715 4.751998 -0.175165
v -0.433402 3.860536 -0.175165
v -0.165545 3.309582 -0.175165
v 0.165545 3.309582 -0.175165
v 0.433402 3.860536 -0.175165
v 0.535714 4.751998 -0.175165
v 0.689037 6.915622 -0.175165
v 1.803922 6.089191 -0.175165
v -0.689037 6.915622 -0.175165
v -1.803922 6.089191 -0.175165
v -2.229770 4.751998 -0.175165
v -1.803922 3.414805 -0.175165
v -0.689037 2.588375 -0.175165
v 0.689037 2.588375 -0.175165
v 1.803922 3.414805 -0.175165
v 2.229769 4.751998 -0.175165
v 1.803922 6.089191 0.175165
v 0.689037 6.915622 0.175165
v 0.165545 6.194414 0.175165
v 0.433402 5.643460 0.175165
v -0.689037 6.915622 0.175165
v -0.165545 6.194413 0.175165
v -1.803922 6.089191 0.175165
v -0.433403 5.643460 0.175165
v -2.229770 4.751998 0.175165
v -0.535715 4.751998 0.175165
v -1.803922 3.414805 0.175165
v -0.433402 3.860536 0.175165
v -0.689037 2.588375 0.175165
v -0.165545 3.309582 0.175165
v 0.689037 2.588375 0.175165
v 0.165545 3.309582 0.175165
v 1.803922 3.414805 0.175165
v 0.433402 3.860536 0.175165
v 2.229769 4.751998 0.175165
v 0.535714 4.751998 0.175165
v 0.216701 5.197729 -0.625955
v 0.082772 5.473206 -0.625955
v 0.165545 6.194414 -0.625955
v 0.433402 5.643460 -0.625955
v -0.082773 5.473206 -0.625955
v -0.165545 6.194413 -0.625955
v -0.216701 5.197729 -0.625955
v -0.433403 5.643460 -0.625955
v -0.267857 4.751998 -0.625955
v -0.535715 4.751998 -0.625955
v -0.216701 4.306267 -0.625955
v -0.433402 3.860536 -0.625955
v -0.082773 4.030790 -0.625955
v -0.165545 3.309582 -0.625955
v 0.082772 4.030790 -0.625955
v 0.165545 3.309582 -0.625955
v 0.216701 4.306267 -0.625955
v 0.433402 3.860536 -0.625955
v 0.267857 4.751998 -0.625955
v 0.535714 4.751998 -0.625955
v -0.000000 4.751998 -0.625955
v 0.433402 5.643460 0.625955
v 0.165545 6.194414 0.625955
v 0.082772 5.473206 0.625955
v 0.216701 5.197729 0.625955
v -0.165545 6.194413 0.625955
v -0.082773 5.473206 0.625955
v -0.433403 5.643460 0.625955
v -0.216701 5.197729 0.625955
v -0.535715 4.751998 0.625955
v -0.267857 4.751998 0.625955
v -0.433402 3.860536 0.625955
v -0.216701 4.306267 0.625955
v -0.165545 3.309582 0.625955
v -0.082773 4.030790 0.625955
v 0.165545 3.309582 0.625955
v 0.082772 4.030790 0.625955
v 0.433402 3.860536 0.625955
v 0.216701 4.306267 0.625955
v 0.535714 4.751998 0.625955
v 0.267857 4.751998 0.625955
v -0.000000 4.751998 0.625955
vt 0.531602 0.133290
vt 0.512071 0.119099
vt 0.487929 0.119099
vt 0.468398 0.133290
vt 0.460938 0.156250
vt 0.468398 0.179210
vt 0.487929 0.193401
vt 0.512071 0.193401
vt 0.531602 0.179210
vt 0.539063 0.156250
vt 0.563204 0.110329
vt 0.524142 0.081949
vt 0.475858 0.081949
vt 0.436796 0.110329
vt 0.421875 0.156250
vt 0.436796 0.202171
vt 0.475858 0.230551
vt 0.524142 0.230551
vt 0.563204 0.202171
vt 0.578125 0.156250
vt 0.594807 0.087369
vt 0.536213 0.044798
vt 0.463787 0.044798
vt 0.405193 0.087369
vt 0.382813 0.156250
vt 0.405193 0.225131
vt 0.463787 0.267702
vt 0.536213 0.267702
vt 0.594807 0.225131
vt 0.617188 0.156250
vt 0.626409 0.064409
vt 0.548284 0.007647
vt 0.451716 0.007647
vt 0.373591 0.064409
vt 0.343750 0.156250
vt 0.373591 0.248091
vt 0.451716 0.304853
vt 0.548284 0.304853
vt 0.626409 0.248091
vt 0.656250 0.156250
vt 0.375000 0.312500
vt 0.400000 0.312500
vt 0.425000 0.312500
vt 0.450000 0.312500
vt 0.475000 0.312500
vt 0.500000 0.312500
vt 0.525000 0.312500
vt 0.550000 0.312500
vt 0.575000 0.312500
vt 0.600000 0.312500
vt 0.625000 0.312500
vt 0.375000 0.688440
vt 0.400000 0.688440
vt 0.425000 0.688440
vt 0.450000 0.688440
vt 0.475000 0.688440
vt 0.500000 0.688440
vt 0.525000 0.688440
vt 0.550000 0.688440
vt 0.575000 0.688440
vt 0.600000 0.688440
vt 0.625000 0.688440
vt 0.626409 0.751909
vt 0.548284 0.695147
vt 0.451716 0.695147
vt 0.373591 0.751909
vt 0.343750 0.843750
vt 0.373591 0.935591
vt 0.451716 0.992353
vt 0.548284 0.992353
vt 0.626409 0.935591
vt 0.656250 0.843750
vt 0.594807 0.774869
vt 0.536213 0.732298
vt 0.463787 0.732298
vt 0.405193 0.774869
vt 0.382813 0.843750
vt 0.405193 0.912631
vt 0.463787 0.955202
vt 0.536213 0.955202
vt 0.594807 0.912631
vt 0.617188 0.843750
vt 0.563204 0.797829
vt 0.524142 0.769449
vt 0.475858 0.769449
vt 0.436796 0.797829
vt 0.421875 0.843750
vt 0.436796 0.889671
vt 0.475858 0.918051
vt 0.524142 0.918051
vt 0.563204 0.889671
vt 0.578125 0.843750
vt 0.531602 0.820790
vt 0.512071 0.806599
vt 0.487929 0.806599
vt 0.468398 0.820790
vt 0.460938 0.843750
vt 0.468398 0.866710
vt 0.487929 0.880901
vt 0.512071 0.880901
vt 0.531602 0.866710
vt 0.539063 0.843750
vt 0.500000 0.150000
vt 0.500000 0.837500
vt 0.536213 0.044798
vt 0.594807 0.087369
vt 0.463787 0.044798
vt 0.405193 0.087369
vt 0.382813 0.156250
vt 0.405193 0.225131
vt 0.463787 0.267702
vt 0.536213 0.267702
vt 0.594807 0.225131
vt 0.617188 0.156250
vt 0.594807 0.912631
vt 0.536213 0.955202
vt 0.463787 0.955202
vt 0.405193 0.912631
vt 0.382813 0.843750
vt 0.405193 0.774869
vt 0.463787 0.732298
vt 0.536213 0.732298
vt 0.594807 0.774869
vt 0.617188 0.843750
vt 0.524142 0.081949
vt 0.563204 0.110329
vt 0.475858 0.081949
vt 0.436796 0.110329
vt 0.421875 0.156250
vt 0.436796 0.202171
vt 0.475858 0.230551
vt 0.524142 0.230551
vt 0.563204 0.202171
vt 0.578125 0.156250
vt 0.563204 0.889671
vt 0.524142 0.918051
vt 0.475858 0.918051
vt 0.436796 0.889671
vt 0.421875 0.843750
vt 0.436796 0.797829
vt 0.475858 0.769449
vt 0.524142 0.769449
vt 0.563204 0.797829
vt 0.578125 0.843750
vn 0.000000 0.000000 -1.000000
vn 0.000000 0.000000 -1.000000
vn 0.000000 0.000000 -1.000000
vn 0.000000 0.000000 -1.000000
vn 0.000000 0.000000 -1.000000
vn 0.000000 0.000000 -1.000000
vn 0.000000 0.000000 -1.000000
vn 0.000000 0.000000 -1.000000
vn 0.000000 0.000000 -1.000000
vn 0.000000 0.000000 -1.000000
vn 0.000000 0.000000 -1.000000
vn -0.000000 0.000000 -1.000000
vn -0.000000 0.000000 -1.000000
vn -0.000000 0.000000 -1.000000
vn 0.000000 0.000000 -1.000000
vn 0.000000 0.000000 -1.000000
vn 0.000000 0.000000 -1.000000
vn 0.000000 0.000000 -1.000000
vn 0.000000 0.000000 -1.000000
vn 0.000000 0.000000 -1.000000
vn 0.000000 0.000000 -1.000000
vn -0.000000 0.000000 -1.000000
vn -0.000000 0.000000 -1.000000
vn -0.000000 0.000000 -1.000000
vn 0.000000 0.000000 -1.000000
vn 0.000000 0.000000 -1.000000
vn 0.000000 0.000000 -1.000000
vn 0.000000 0.000000 -1.000000
vn 0.000000 0.000000 -1.000000
vn 0.000000 0.000000 -1.000000
vn 0.000000 0.000000 -1.000000
vn 0.000000 0.000000 -1.000000
vn 0.000000 0.000000 -1.000000
vn -0.000000 0.000000 -1.000000
vn 0.000000 0.000000 -1.000000
vn 0.000000 0.000000 -1.000000
vn 0.000000 0.000000 -1.000000
vn 0.000000 0.000000 -1.000000
vn -0.000000 0.000000 -1.000000
vn 0.000000 0.000000 -1.000000
vn 0.000000 0.000000 -1.000000
vn 0.000000 0.000000 -1.000000
vn 0.000000 0.000000 -1.000000
vn 0.000000 0.000000 -1.000000
vn 0.000000 0.000000 -1.000000
vn 0.000000 0.000000 -1.000000
vn -0.000000 0.000000 -1.000000
vn -0.000000 0.000000 -1.000000
vn 0.000000 0.000000 -1.000000
vn -0.000000 0.000000 -1.000000
vn -0.000000 0.000000 -1.000000
vn -0.000000 0.000000 -1.000000
vn -0.000000 0.000000 -1.000000
vn 0.000000 0.000000 -1.000000
vn -0.000000 0.000000 -1.000000
vn -0.000000 0.000000 -1.000000
vn -0.000000 0.000000 -1.000000
vn -0.000000 0.000000 -1.000000
vn 0.000000 0.000000 -1.000000
vn -0.000000 0.000000 -1.000000
vn 0.595502 0.803354 0.000000
vn 0.595502 0.803354 0.000000
vn 0.595502 0.803354 0.000000
vn 0.595502 0.803354 0.000000
vn 0.000000 1.000000 0.000000
vn 0.000000 1.000000 0.000000
vn 0.000000 1.000000 0.000000
vn 0.000000 1.000000 0.000000
vn -0.595502 0.803354 0.000000
vn -0.595502 0.803354 0.000000
vn -0.595502 0.803354 0.000000
vn -0.595502 0.803354 0.000000
vn -0.952848 0.303448 0.000000
vn -0.952848 0.303448 0.000000
vn -0.952848 0.303448 0.000000
vn -0.952848 0.303448 0.000000
vn -0.952848 -0.303448 0.000000
vn -0.952848 -0.303448 0.000000
vn -0.952848 -0.303448 0.000000
vn -0.952848 -0.303448 0.000000
vn -0.595502 -0.803354 0.000000
vn -0.595502 -0.803354 0.000000
vn -0.595502 -0.803354 0.000000
vn -0.595502 -0.803354 0.000000
vn 0.000000 -1.000000 0.000000
vn 0.000000 -1.000000 0.000000
vn 0.000000 -1.000000 0.000000
vn 0.000000 -1.000000 0.000000
vn 0.595502 -0.803354 0.000000
vn 0.595502 -0.803354 0.000000
vn 0.595502 -0.803354 0.000000
vn 0.595502 -0.803354 0.000000
vn 0.952848 -0.303448 0.000000
vn 0.952848 -0.303448 0.000000
vn 0.952848 -0.303448 0.000000
vn 0.952848 -0.303448 0.000000
vn 0.952848 0.303448 0.000000
vn 0.952848 0.303448 0.000000
vn 0.952848 0.303448 0.000000
vn 0.952848 0.303448 0.000000
vn 0.000000 0.000000 1.000000
vn 0.000000 0.000000 1.000000
vn 0.000000 0.000000 1.000000
vn 0.000000 0.000000 1.000000
vn 0.000000 0.000000 1.000000
vn 0.000000 0.000000 1.000000
vn -0.000000 0.000000 1.000000
vn -0.000000 0.000000 1.000000
vn -0.000000 0.000000 1.000000
vn 0.000000 0.000000 1.000000
vn -0.000000 0.000000 1.000000
vn -0.000000 0.000000 1.000000
vn 0.000000 0.000000 1.000000
vn -0.000000 0.000000 1.000000
vn -0.000000 0.000000 1.000000
vn -0.000000 0.000000 1.000000
vn -0.000000 0.000000 1.000000
vn -0.000000 0.000000 1.000000
vn -0.000000 0.000000 1.000000
vn 0.000000 0.000000 1.000000
vn -0.000000 0.000000 1.000000
vn -0.000000 0.000000 1.000000
vn -0.000000 0.000000 1.000000
vn 0.000000 0.000000 1.000000
vn 0.000000 0.000000 1.000000
vn -0.000000 0.000000 1.000000
vn 0.000000 0.000000 1.000000
vn 0.000000 0.000000 1.000000
vn 0.000000 0.000000 1.000000
vn 0.000000 0.000000 1.000000
vn 0.000000 0.000000 1.000000
vn 0.000000 0.000000 1.000000
vn -0.000000 0.000000 1.000000
vn 0.000000 0.000000 1.000000
vn 0.000000 0.000000 1.000000
vn 0.000000 0.000000 1.000000
vn 0.000000 0.000000 1.000000
vn 0.000000 0.000000 1.000000
vn 0.000000 0.000000 1.000000
vn -0.000000 0.000000 1.000000
vn 0.000000 0.000000 1.000000
vn 0.000000 0.000000 1.000000
vn 0.000000 0.000000 1.000000
vn 0.000000 0.000000 1.000000
vn 0.000000 0.000000 1.000000
vn 0.000000 0.000000 1.000000
vn 0.000000 0.000000 1.000000
vn 0.000000 0.000000 1.000000
vn 0.000000 0.000000 1.000000
vn 0.000000 0.000000 1.000000
vn -0.000000 0.000000 1.000000
vn 0.000000 0.000000 1.000000
vn -0.000000 0.000000 1.000000
vn -0.000000 0.000000 1.000000
vn 0.000000 0.000000 1.000000
vn 0.000000 0.000000 1.000000
vn 0.000000 0.000000 1.000000
vn 0.000000 0.000000 1.000000
vn 0.000000 0.000000 1.000000
vn 0.000000 0.000000 1.000000
vn 0.000000 0.000000 -1.000000
vn 0.000000 0.000000 1.000000
vn -0.595502 -0.803354 0.000000
vn -0.595502 -0.803354 0.000000
vn -0.595502 -0.803354 0.000000
vn -0.595502 -0.803354 0.000000
vn 0.000000 -1.000000 0.000000
vn 0.000000 -1.000000 0.000000
vn 0.000000 -1.000000 0.000000
vn 0.000000 -1.000000 0.000000
vn 0.595502 -0.803354 0.000000
vn 0.595502 -0.803354 0.000000
vn 0.595502 -0.803354 0.000000
vn 0.595502 -0.803354 0.000000
vn 0.952848 -0.303448 0.000000
vn 0.952848 -0.303448 0.000000
vn 0.952848 -0.303448 0.000000
vn 0.952848 -0.303448 0.000000
vn 0.952848 0.303448 0.000000
vn 0.952848 0.303448 0.000000
vn 0.952848 0.303448 0.000000
vn 0.952848 0.303448 0.000000
vn 0.595502 0.803354 0.000000
vn 0.595502 0.803354 0.000000
vn 0.595502 0.803354 0.000000
vn 0.595502 0.803354 0.000000
vn -0.000000 1.000000 0.000000
vn -0.000000 1.000000 0.000000
vn -0.000000 1.000000 0.000000
vn -0.000000 1.000000 0.000000
vn -0.595502 0.803354 0.000000
vn -0.595502 0.803354 0.000000
vn -0.595502 0.803354 0.000000
vn -0.595502 0.803354 0.000000
vn -0.952848 0.303448 0.000000
vn -0.952848 0.303448 0.000000
vn -0.952848 0.303448 0.000000
vn -0.952848 0.303448 0.000000
vn -0.952848 -0.303448 0.000000
vn -0.952848 -0.303448 0.000000
vn -0.952848 -0.303448 0.000000
vn -0.952848 -0.303448 0.000000
vn -0.595502 -0.803354 0.000000
vn -0.595502 -0.803354 0.000000
vn -0.595502 -0.803354 0.000000
vn -0.595502 -0.803354 0.000000
vn 0.000000 -1.000000 0.000000
vn 0.000000 -1.000000 0.000000
vn 0.000000 -1.000000 0.000000
vn 0.000000 -1.000000 0.000000
vn 0.595502 -0.803354 0.000000
vn 0.595502 -0.803354 0.000000
vn 0.595502 -0.803354 0.000000
vn 0.595502 -0.803354 0.000000
vn 0.952848 -0.303448 0.000000
vn 0.952848 -0.303448 0.000000
vn 0.952848 -0.303448 0.000000
vn 0.952848 -0.303448 0.000000
vn 0.952848 0.303448 0.000000
vn 0.952848 0.303448 0.000000
vn 0.952848 0.303448 0.000000
vn 0.952848 0.303448 0.000000
vn 0.595502 0.803354 0.000000
vn 0.595502 0.803354 0.000000
vn 0.595502 0.803354 0.000000
vn 0.595502 0.803354 0.000000
vn -0.000000 1.000000 0.000000
vn -0.000000 1.000000 0.000000
vn -0.000000 1.000000 0.000000
vn -0.000000 1.000000 0.000000
vn -0.595502 0.803354 0.000000
vn -0.595502 0.803354 0.000000
vn -0.595502 0.803354 0.000000
vn -0.595502 0.803354 0.000000
vn -0.952848 0.303448 0.000000
vn -0.952848 0.303448 0.000000
vn -0.952848 0.303448 0.000000
vn -0.952848 0.303448 0.000000
vn -0.952848 -0.303448 0.000000
vn -0.952848 -0.303448 0.000000
vn -0.952848 -0.303448 0.000000
vn -0.952848 -0.303448 0.000000
vn 0.899347 0.437236 0.000000
vn 0.899347 0.437236 0.000000
vn 0.899347 0.437236 0.000000
vn 0.899347 0.437236 0.000000
vn -0.000003 1.000000 0.000000
vn -0.000003 1.000000 0.000000
vn -0.000003 1.000000 0.000000
vn -0.000003 1.000000 0.000000
vn -0.899347 0.437236 0.000000
vn -0.899347 0.437236 0.000000
vn -0.899347 0.437236 0.000000
vn -0.899347 0.437236 0.000000
vn -0.993478 0.114021 0.000000
vn -0.993478 0.114021 0.000000
vn -0.993478 0.114021 0.000000
vn -0.993478 0.114020 0.000000
vn -0.993478 -0.114021 0.000000
vn -0.993478 -0.114021 0.000000
vn -0.993478 -0.114021 0.000000
vn -0.993478 -0.114021 0.000000
vn -0.899347 -0.437236 0.000000
vn -0.899347 -0.437236 0.000000
vn -0.899347 -0.437236 0.000000
vn -0.899347 -0.437236 0.000000
vn 0.000000 -1.000000 0.000000
vn 0.000000 -1.000000 0.000000
vn 0.000000 -1.000000 0.000000
vn 0.000000 -1.000000 0.000000
vn 0.899347 -0.437236 0.000000
vn 0.899347 -0.437236 0.000000
vn 0.899347 -0.437236 0.000000
vn 0.899347 -0.437236 0.000000
vn 0.993478 -0.114020 0.000000
vn 0.993478 -0.114020 0.000000
vn 0.993478 -0.114020 0.000000
vn 0.993478 -0.114020 0.000000
vn 0.993478 0.114020 0.000000
vn 0.993478 0.114020 0.000000
vn 0.993478 0.114020 0.000000
vn 0.993478 0.114020 0.000000
vn 0.899347 0.437235 0.000000
vn 0.899347 0.437236 0.000000
vn 0.899347 0.437236 0.000000
vn 0.899347 0.437236 0.000000
vn -0.000003 1.000000 0.000000
vn -0.000003 1.000000 0.000001
vn -0.000003 1.000000 0.000002
vn -0.000003 1.000000 0.000003
vn -0.899347 0.437236 0.000001
vn -0.899347 0.437236 0.000001
vn -0.899347 0.437236 0.000001
vn -0.899347 0.437236 0.000000
vn -0.993478 0.114020 0.000000
vn -0.993478 0.114021 0.000000
vn -0.993478 0.114020 0.000000
vn -0.993478 0.114021 0.000000
vn -0.993478 -0.114021 0.000000
vn -0.993478 -0.114021 0.000000
vn -0.993478 -0.114021 0.000000
vn -0.993478 -0.114021 0.000000
vn -0.899347 -0.437236 0.000000
vn -0.899347 -0.437236 0.000000
vn -0.899347 -0.437236 0.000000
vn -0.899347 -0.437236 0.000000
vn 0.000000 -1.000000 0.000000
vn 0.000000 -1.000000 0.000000
vn 0.000000 -1.000000 0.000000
vn 0.000000 -1.000000 0.000000
vn 0.899347 -0.437236 0.000000
vn 0.899347 -0.437236 0.000000
vn 0.899347 -0.437236 0.000000
vn 0.899347 -0.437236 0.000000
vn 0.993478 -0.114020 0.000000
vn 0.993478 -0.114020 0.000000
vn 0.993478 -0.114020 0.000000
vn 0.993478 -0.114020 0.000000
vn 0.993478 0.114020 0.000000
vn 0.993478 0.114020 0.000000
vn 0.993478 0.114020 0.000000
vn 0.993478 0.114020 0.000000
s 1
g pCylinder1
# usemtl initialShadingGroup
f 81/1/1 82/2/2 84/126/3
f 84/126/3 82/2/2 83/125/4
f 82/2/2 85/3/5 83/125/4
f 83/125/4 85/3/5 86/127/6
f 87/4/7 88/128/8 85/3/5
f 85/3/5 88/128/8 86/127/6
f 89/5/9 90/129/10 87/4/7
f 87/4/7 90/129/10 88/128/8
f 89/5/9 91/6/11 90/129/10
f 90/129/10 91/6/11 92/130/12
f 91/6/11 93/7/13 92/130/12
f 92/130/12 93/7/13 94/131/14
f 93/7/13 95/8/15 94/131/14
f 94/131/14 95/8/15 96/132/16
f 97/9/17 98/133/18 95/8/15
f 95/8/15 98/133/18 96/132/16
f 99/10/19 100/134/20 97/9/17
f 97/9/17 100/134/20 98/133/18
f 99/10/19 81/1/1 100/134/20
f 100/134/20 81/1/1 84/126/3
s 6
f 41/12/21 51/105/22 42/11/23
f 42/11/23 51/105/22 52/106/24
f 41/12/21 43/13/25 51/105/22
f 51/105/22 43/13/25 53/107/26
f 43/13/25 44/14/27 53/107/26
f 53/107/26 44/14/27 54/108/28
f 44/14/27 45/15/29 54/108/28
f 54/108/28 45/15/29 55/109/30
f 46/16/31 56/110/32 45/15/29
f 45/15/29 56/110/32 55/109/30
f 47/17/33 57/111/34 46/16/31
f 46/16/31 57/111/34 56/110/32
f 47/17/33 48/18/35 57/111/34
f 57/111/34 48/18/35 58/112/36
f 48/18/35 49/19/37 58/112/36
f 58/112/36 49/19/37 59/113/38
f 49/19/37 50/20/39 59/113/38
f 59/113/38 50/20/39 60/114/40
f 42/11/23 52/106/24 50/20/39
f 50/20/39 52/106/24 60/114/40
s 9
f 1/21/41 2/22/42 11/31/43
f 11/31/43 2/22/42 12/32/44
f 2/22/42 3/23/45 12/32/44
f 12/32/44 3/23/45 13/33/46
f 4/24/47 14/34/48 3/23/45
f 3/23/45 14/34/48 13/33/46
f 5/25/49 15/35/50 4/24/47
f 4/24/47 15/35/50 14/34/48
f 5/25/49 6/26/51 15/35/50
f 15/35/50 6/26/51 16/36/52
f 6/26/51 7/27/53 16/36/52
f 16/36/52 7/27/53 17/37/54
f 7/27/53 8/28/55 17/37/54
f 17/37/54 8/28/55 18/38/56
f 9/29/57 19/39/58 8/28/55
f 8/28/55 19/39/58 18/38/56
f 10/30/59 20/40/60 9/29/57
f 9/29/57 20/40/60 19/39/58
f 10/30/59 1/21/41 20/40/60
f 20/40/60 1/21/41 11/31/43
s 14
f 11/41/61 12/42/62 21/52/63
f 21/52/63 12/42/62 22/53/64
s 15
f 12/42/65 13/43/66 22/53/67
f 22/53/67 13/43/66 23/54/68
s 16
f 13/43/69 14/44/70 23/54/71
f 23/54/71 14/44/70 24/55/72
s 17
f 14/44/73 15/45/74 24/55/75
f 24/55/75 15/45/74 25/56/76
s 18
f 15/45/77 16/46/78 25/56/79
f 25/56/79 16/46/78 26/57/80
s 19
f 16/46/81 17/47/82 26/57/83
f 26/57/83 17/47/82 27/58/84
s 20
f 17/47/85 18/48/86 27/58/87
f 27/58/87 18/48/86 28/59/88
s 21
f 18/48/89 19/49/90 28/59/91
f 28/59/91 19/49/90 29/60/92
s 22
f 19/49/93 20/50/94 29/60/95
f 29/60/95 20/50/94 30/61/96
s 23
f 20/50/97 11/51/98 30/61/99
f 30/61/99 11/51/98 21/62/100
s 24
f 22/70/101 32/80/102 21/71/103
f 21/71/103 32/80/102 31/81/104
f 22/70/101 23/69/105 32/80/102
f 32/80/102 23/69/105 33/79/106
f 23/69/105 24/68/107 33/79/106
f 33/79/106 24/68/107 34/78/108
f 24/68/107 25/67/109 34/78/108
f 34/78/108 25/67/109 35/77/110
f 26/66/111 36/76/112 25/67/109
f 25/67/109 36/76/112 35/77/110
f 27/65/113 37/75/114 26/66/111
f 26/66/111 37/75/114 36/76/112
f 27/65/113 28/64/115 37/75/114
f 37/75/114 28/64/115 38/74/116
f 28/64/115 29/63/117 38/74/116
f 38/74/116 29/63/117 39/73/118
f 29/63/117 30/72/119 39/73/118
f 39/73/118 30/72/119 40/82/120
f 21/71/103 31/81/104 30/72/119
f 30/72/119 31/81/104 40/82/120
s 27
f 61/115/121 62/116/122 64/91/123
f 64/91/123 62/116/122 63/90/124
f 62/116/122 65/117/125 63/90/124
f 63/90/124 65/117/125 66/89/126
f 67/118/127 68/88/128 65/117/125
f 65/117/125 68/88/128 66/89/126
f 69/119/129 70/87/130 67/118/127
f 67/118/127 70/87/130 68/88/128
f 69/119/129 71/120/131 70/87/130
f 70/87/130 71/120/131 72/86/132
f 71/120/131 73/121/133 72/86/132
f 72/86/132 73/121/133 74/85/134
f 73/121/133 75/122/135 74/85/134
f 74/85/134 75/122/135 76/84/136
f 77/123/137 78/83/138 75/122/135
f 75/122/135 78/83/138 76/84/136
f 79/124/139 80/92/140 77/123/137
f 77/123/137 80/92/140 78/83/138
f 79/124/139 61/115/121 80/92/140
f 80/92/140 61/115/121 64/91/123
s 32
f 103/136/141 104/100/142 102/135/143
f 102/135/143 104/100/142 105/101/144
f 103/136/141 106/137/145 104/100/142
f 104/100/142 106/137/145 107/99/146
f 106/137/145 108/138/147 107/99/146
f 107/99/146 108/138/147 109/98/148
f 108/138/147 110/139/149 109/98/148
f 109/98/148 110/139/149 111/97/150
f 112/140/151 113/96/152 110/139/149
f 110/139/149 113/96/152 111/97/150
f 114/141/153 115/95/154 112/140/151
f 112/140/151 115/95/154 113/96/152
f 114/141/153 116/142/155 115/95/154
f 115/95/154 116/142/155 117/94/156
f 116/142/155 118/143/157 117/94/156
f 117/94/156 118/143/157 119/93/158
f 118/143/157 120/144/159 119/93/158
f 119/93/158 120/144/159 121/102/160
f 102/135/143 105/101/144 120/144/159
f 120/144/159 105/101/144 121/102/160
s 1
f 82/2/2 81/1/1 101/103/161
f 85/3/5 82/2/2 101/103/161
f 87/4/7 85/3/5 101/103/161
f 89/5/9 87/4/7 101/103/161
f 91/6/11 89/5/9 101/103/161
f 93/7/13 91/6/11 101/103/161
f 95/8/15 93/7/13 101/103/161
f 97/9/17 95/8/15 101/103/161
f 99/10/19 97/9/17 101/103/161
f 81/1/1 99/10/19 101/103/161
s 32
f 105/101/144 104/100/142 122/104/162
f 104/100/142 107/99/146 122/104/162
f 107/99/146 109/98/148 122/104/162
f 109/98/148 111/97/150 122/104/162
f 111/97/150 113/96/152 122/104/162
f 113/96/152 115/95/154 122/104/162
f 115/95/154 117/94/156 122/104/162
f 117/94/156 119/93/158 122/104/162
f 119/93/158 121/102/160 122/104/162
f 121/102/160 105/101/144 122/104/162
s 35
f 2/22/163 1/21/164 51/105/165
f 51/105/165 1/21/164 52/106/166
s 36
f 3/23/167 2/22/168 53/107/169
f 53/107/169 2/22/168 51/105/170
s 37
f 4/24/171 3/23/172 54/108/173
f 54/108/173 3/23/172 53/107/174
s 38
f 5/25/175 4/24/176 55/109/177
f 55/109/177 4/24/176 54/108/178
s 39
f 6/26/179 5/25/180 56/110/181
f 56/110/181 5/25/180 55/109/182
s 40
f 7/27/183 6/26/184 57/111/185
f 57/111/185 6/26/184 56/110/186
s 41
f 8/28/187 7/27/188 58/112/189
f 58/112/189 7/27/188 57/111/190
s 42
f 9/29/191 8/28/192 59/113/193
f 59/113/193 8/28/192 58/112/194
s 43
f 10/30/195 9/29/196 60/114/197
f 60/114/197 9/29/196 59/113/198
s 44
f 1/21/199 10/30/200 52/106/201
f 52/106/201 10/30/200 60/114/202
s 45
f 31/81/203 32/80/204 61/115/205
f 61/115/205 32/80/204 62/116/206
s 46
f 32/80/207 33/79/208 62/116/209
f 62/116/209 33/79/208 65/117/210
s 47
f 33/79/211 34/78/212 65/117/213
f 65/117/213 34/78/212 67/118/214
s 48
f 34/78/215 35/77/216 67/118/217
f 67/118/217 35/77/216 69/119/218
s 49
f 35/77/219 36/76/220 69/119/221
f 69/119/221 36/76/220 71/120/222
s 50
f 36/76/223 37/75/224 71/120/225
f 71/120/225 37/75/224 73/121/226
s 51
f 37/75/227 38/74/228 73/121/229
f 73/121/229 38/74/228 75/122/230
s 52
f 38/74/231 39/73/232 75/122/233
f 75/122/233 39/73/232 77/123/234
s 53
f 39/73/235 40/82/236 77/123/237
f 77/123/237 40/82/236 79/124/238
s 54
f 40/82/239 31/81/240 79/124/241
f 79/124/241 31/81/240 61/115/242
s 55
f 41/12/243 42/11/244 83/125/245
f 83/125/245 42/11/244 84/126/246
s 56
f 43/13/247 41/12/248 86/127/249
f 86/127/249 41/12/248 83/125/250
s 57
f 44/14/251 43/13/252 88/128/253
f 88/128/253 43/13/252 86/127/254
s 58
f 45/15/255 44/14/256 90/129/257
f 90/129/257 44/14/256 88/128/258
s 59
f 46/16/259 45/15/260 92/130/261
f 92/130/261 45/15/260 90/129/262
s 60
f 47/17/263 46/16/264 94/131/265
f 94/131/265 46/16/264 92/130/266
s 61
f 48/18/267 47/17/268 96/132/269
f 96/132/269 47/17/268 94/131/270
s 62
f 49/19/271 48/18/272 98/133/273
f 98/133/273 48/18/272 96/132/274
s 63
f 50/20/275 49/19/276 100/134/277
f 100/134/277 49/19/276 98/133/278
s 64
f 42/11/279 50/20/280 84/126/281
f 84/126/281 50/20/280 100/134/282
s 65
f 64/91/283 63/90/284 102/135/285
f 102/135/285 63/90/284 103/136/286
s 66
f 63/90/287 66/89/288 103/136/289
f 103/136/289 66/89/288 106/137/290
s 67
f 66/89/291 68/88/292 106/137/293
f 106/137/293 68/88/292 108/138/294
s 68
f 68/88/295 70/87/296 108/138/297
f 108/138/297 70/87/296 110/139/298
s 69
f 70/87/299 72/86/300 110/139/301
f 110/139/301 72/86/300 112/140/302
s 70
f 72/86/303 74/85/304 112/140/305
f 112/140/305 74/85/304 114/141/306
s 71
f 74/85/307 76/84/308 114/141/309
f 114/141/309 76/84/308 116/142/310
s 72
f 76/84/311 78/83/312 116/142/313
f 116/142/313 78/83/312 118/143/314
s 73
f 78/83/315 80/92/316 118/143/317
f 118/143/317 80/92/316 120/144/318
s 74
f 80/92/319 64/91/320 120/144/321
f 120/144/321 64/91/320 102/135/322
