# This file uses centimeters as units for non-parametric coordinates.

# mtllib star.mtl
# g default
v 1.952949 5.491917 -0.073739
v 0.480452 5.405392 -0.308356
v 0.005845 6.915064 -0.073739
v -0.478865 5.408124 -0.308356
v -1.949337 5.503034 -0.073739
v -0.777910 4.496604 -0.308356
v -1.210601 3.207205 -0.073739
v -0.003413 3.930520 -0.308356
v 1.201144 3.200334 -0.073739
v 0.774298 4.492182 -0.308356
v 1.952949 5.491917 0.073739
v 0.480452 5.405392 0.308356
v 0.005845 6.915064 0.073739
v -0.478865 5.408124 0.308356
v -1.949337 5.503034 0.073739
v -0.777910 4.496604 0.308356
v -1.210601 3.207205 0.073739
v -0.003413 3.930520 0.308356
v 1.201144 3.200334 0.073739
v 0.774298 4.492182 0.308356
v -0.000000 4.863511 -0.416559
v 0.000000 4.863511 0.416559
vt 0.626409 0.064409
vt 0.548284 0.007647
vt 0.451716 0.007647
vt 0.373591 0.064409
vt 0.343750 0.156250
vt 0.373591 0.248091
vt 0.451716 0.304853
vt 0.548284 0.304853
vt 0.626409 0.248091
vt 0.656250 0.156250
vt 0.375000 0.312500
vt 0.400000 0.312500
vt 0.425000 0.312500
vt 0.450000 0.312500
vt 0.475000 0.312500
vt 0.500000 0.312500
vt 0.525000 0.312500
vt 0.550000 0.312500
vt 0.575000 0.312500
vt 0.600000 0.312500
vt 0.625000 0.312500
vt 0.375000 0.688440
vt 0.400000 0.688440
vt 0.425000 0.688440
vt 0.450000 0.688440
vt 0.475000 0.688440
vt 0.500000 0.688440
vt 0.525000 0.688440
vt 0.550000 0.688440
vt 0.575000 0.688440
vt 0.600000 0.688440
vt 0.625000 0.688440
vt 0.626409 0.751909
vt 0.548284 0.695147
vt 0.451716 0.695147
vt 0.373591 0.751909
vt 0.343750 0.843750
vt 0.373591 0.935591
vt 0.451716 0.992353
vt 0.548284 0.992353
vt 0.626409 0.935591
vt 0.656250 0.843750
vt 0.500000 0.150000
vt 0.500000 0.837500
vn -0.058660 0.998278 0.000000
vn -0.058660 0.998278 0.000000
vn -0.058660 0.998278 0.000000
vn -0.058660 0.998278 0.000000
vn 0.953969 0.299906 0.000000
vn 0.953969 0.299906 0.000000
vn 0.953969 0.299906 0.000000
vn 0.953969 0.299906 0.000000
vn -0.951967 0.306202 0.000000
vn -0.951967 0.306202 0.000000
vn -0.951967 0.306202 0.000000
vn -0.951967 0.306202 0.000000
vn 0.064410 0.997924 0.000000
vn 0.064410 0.997924 0.000000
vn 0.064410 0.997924 0.000000
vn 0.064410 0.997924 0.000000
vn -0.651668 -0.758504 0.000000
vn -0.651668 -0.758504 0.000000
vn -0.651668 -0.758504 0.000000
vn -0.651668 -0.758504 0.000000
vn -0.948044 0.318140 0.000000
vn -0.948044 0.318140 0.000000
vn -0.948044 0.318140 0.000000
vn -0.948044 0.318140 0.000000
vn 0.513974 -0.857806 0.000000
vn 0.513974 -0.857806 0.000000
vn 0.513974 -0.857806 0.000000
vn 0.513974 -0.857806 0.000000
vn -0.518381 -0.855150 0.000000
vn -0.518380 -0.855150 0.000000
vn -0.518381 -0.855150 0.000000
vn -0.518380 -0.855150 0.000000
vn 0.949511 0.313733 0.000000
vn 0.949511 0.313733 0.000000
vn 0.949511 0.313733 0.000000
vn 0.949511 0.313733 0.000000
vn 0.646852 -0.762615 0.000000
vn 0.646852 -0.762616 0.000000
vn 0.646852 -0.762615 0.000000
vn 0.646852 -0.762615 0.000000
vn 0.090700 0.117061 -0.988974
vn 0.157420 0.048851 -0.986323
vn 0.000103 0.011119 -0.999938
vn 0.000417 0.164816 -0.986324
vn -0.089988 0.117370 -0.989003
vn -0.157109 0.049838 -0.986323
vn -0.116102 -0.046434 -0.992151
vn -0.101093 -0.130257 -0.986313
vn -0.000391 -0.115201 -0.993342
vn 0.100384 -0.130805 -0.986313
vn 0.116018 -0.047178 -0.992126
vn 0.157420 0.048851 0.986323
vn 0.090700 0.117061 0.988974
vn 0.000103 0.011119 0.999938
vn 0.000417 0.164816 0.986324
vn -0.089988 0.117370 0.989003
vn -0.157109 0.049838 0.986323
vn -0.116103 -0.046434 0.992151
vn -0.101093 -0.130256 0.986313
vn -0.000391 -0.115201 0.993342
vn 0.100384 -0.130805 0.986313
vn 0.116018 -0.047178 0.992126
s 1
g pCylinder1
# usemtl initialShadingGroup
f 1/11/1 2/12/2 11/22/3
f 11/22/3 2/12/2 12/23/4
s 2
f 2/12/5 3/13/6 12/23/7
f 12/23/7 3/13/6 13/24/8
s 3
f 3/13/9 4/14/10 13/24/11
f 13/24/11 4/14/10 14/25/12
s 4
f 4/14/13 5/15/14 14/25/15
f 14/25/15 5/15/14 15/26/16
s 5
f 5/15/17 6/16/18 15/26/19
f 15/26/19 6/16/18 16/27/20
s 6
f 6/16/21 7/17/22 16/27/23
f 16/27/23 7/17/22 17/28/24
s 7
f 7/17/25 8/18/26 17/28/27
f 17/28/27 8/18/26 18/29/28
s 8
f 8/18/29 9/19/30 18/29/31
f 18/29/31 9/19/30 19/30/32
s 9
f 9/19/33 10/20/34 19/30/35
f 19/30/35 10/20/34 20/31/36
s 10
f 10/20/37 1/21/38 20/31/39
f 20/31/39 1/21/38 11/32/40
s 11
f 2/2/41 1/1/42 21/43/43
f 3/3/44 2/2/41 21/43/43
f 4/4/45 3/3/44 21/43/43
f 5/5/46 4/4/45 21/43/43
f 6/6/47 5/5/46 21/43/43
f 7/7/48 6/6/47 21/43/43
f 8/8/49 7/7/48 21/43/43
f 9/9/50 8/8/49 21/43/43
f 10/10/51 9/9/50 21/43/43
f 1/1/42 10/10/51 21/43/43
s 12
f 11/41/52 12/40/53 22/44/54
f 12/40/53 13/39/55 22/44/54
f 13/39/55 14/38/56 22/44/54
f 14/38/56 15/37/57 22/44/54
f 15/37/57 16/36/58 22/44/54
f 16/36/58 17/35/59 22/44/54
f 17/35/59 18/34/60 22/44/54
f 18/34/60 19/33/61 22/44/54
f 19/33/61 20/42/62 22/44/54
f 20/42/62 11/41/52 22/44/54
