# This file uses centimeters as units for non-parametric coordinates.

# mtllib textured_plane.mtl
g default
v -2.042485 0.995152 -0.000000
v 2.042485 0.995152 -0.000000
v -2.042485 5.080122 0.000000
v 2.042485 5.080122 0.000000
vt 0.003761 0.007522
vt 0.996239 0.007522
vt 0.003761 0.992478
vt 0.996239 0.992478
vn 0.000000 -0.000000 1.000000
vn 0.000000 -0.000000 1.000000
vn 0.000000 -0.000000 1.000000
vn 0.000000 -0.000000 1.000000
s 1
g pPlane1
# usemtl initialShadingGroup
f 1/1/1 2/2/2 3/3/3
f 3/3/3 2/2/2 4/4/4
