# This file uses centimeters as units for non-parametric coordinates.

# mtllib textured_sky.mtl
g default
v 25.672197 -30.006746 -0.000000
v 24.415712 -30.006746 -7.933146
v 20.769245 -30.006746 -15.089741
v 15.089739 -30.006746 -20.769247
v 7.933145 -30.006746 -24.415712
v -0.000001 -30.006746 -25.672201
v -7.933147 -30.006746 -24.415712
v -15.089743 -30.006746 -20.769247
v -20.769249 -30.006746 -15.089741
v -24.415716 -30.006746 -7.933146
v -25.672203 -30.006746 0.000001
v -24.415716 -30.006746 7.933148
v -20.769249 -30.006746 15.089743
v -15.089744 -30.006746 20.769249
v -7.933148 -30.006746 24.415718
v 0.000000 -30.006746 25.672207
v 7.933148 -30.006746 24.415720
v 15.089746 -30.006746 20.769253
v 20.769255 -30.006746 15.089746
v 24.415724 -30.006746 7.933148
v 25.672197 25.162790 0.000000
v 24.415712 25.162790 -7.933146
v 20.769245 25.162790 -15.089741
v 15.089739 25.162790 -20.769247
v 7.933145 25.162790 -24.415712
v -0.000001 25.162790 -25.672201
v -7.933147 25.162790 -24.415712
v -15.089743 25.162790 -20.769247
v -20.769249 25.162790 -15.089741
v -24.415716 25.162790 -7.933146
v -25.672203 25.162790 0.000001
v -24.415716 25.162790 7.933148
v -20.769249 25.162790 15.089743
v -15.089744 25.162790 20.769249
v -7.933148 25.162790 24.415718
v 0.000000 25.162790 25.672207
v 7.933148 25.162790 24.415720
v 15.089746 25.162790 20.769253
v 20.769255 25.162790 15.089746
v 24.415724 25.162790 7.933148
vt 0.996291 0.000075
vt 0.897026 0.000075
vt 0.797760 0.000075
vt 0.698495 0.000075
vt 0.599230 0.000075
vt 0.499964 0.000075
vt 0.400699 0.000075
vt 0.301434 0.000075
vt 0.202168 0.000075
vt 0.102903 0.000075
vt 0.003037 0.000075
vt 0.102401 0.000075
vt 0.201766 0.000075
vt 0.301130 0.000075
vt 0.400495 0.000075
vt 0.499859 0.000075
vt 0.599224 0.000075
vt 0.698588 0.000075
vt 0.797953 0.000075
vt 0.897317 0.000075
vt 0.996681 0.000075
vt 0.996291 1.000428
vt 0.897026 1.000428
vt 0.797760 1.000428
vt 0.698495 1.000428
vt 0.599230 1.000428
vt 0.499964 1.000428
vt 0.400699 1.000428
vt 0.301434 1.000428
vt 0.202168 1.000428
vt 0.102903 1.000428
vt 0.003638 1.000428
vt 0.102401 1.000428
vt 0.201766 1.000428
vt 0.301130 1.000428
vt 0.400495 1.000428
vt 0.499859 1.000428
vt 0.599224 1.000428
vt 0.698588 1.000428
vt 0.797953 1.000428
vt 0.897317 1.000428
vt 0.996681 1.000428
vt 0.003638 0.000075
vt 0.003037 1.000428
vn -0.951057 0.000000 0.309017
vn -1.000000 0.000000 0.000001
vn -0.951057 0.000000 0.309017
vn -1.000000 0.000000 0.000001
vn -0.809017 0.000000 0.587785
vn -0.809017 0.000000 0.587785
vn -0.587785 0.000000 0.809017
vn -0.587785 0.000000 0.809017
vn -0.309017 0.000000 0.951056
vn -0.309017 0.000000 0.951057
vn -0.000000 0.000000 1.000000
vn 0.000000 0.000000 1.000000
vn 0.309017 0.000000 0.951057
vn 0.309017 0.000000 0.951056
vn 0.587785 0.000000 0.809017
vn 0.587785 0.000000 0.809017
vn 0.809017 0.000000 0.587785
vn 0.809017 0.000000 0.587785
vn 0.951057 0.000000 0.309017
vn 0.951057 0.000000 0.309017
vn 1.000000 0.000000 -0.000000
vn 1.000000 0.000000 0.000000
vn 0.951057 0.000000 -0.309017
vn 0.951057 0.000000 -0.309017
vn 0.809017 0.000000 -0.587785
vn 0.809017 0.000000 -0.587785
vn 0.587785 0.000000 -0.809017
vn 0.587786 0.000000 -0.809017
vn 0.309017 0.000000 -0.951056
vn 0.309017 0.000000 -0.951056
vn -0.000000 0.000000 -1.000000
vn 0.000000 0.000000 -1.000000
vn -0.309017 0.000000 -0.951056
vn -0.309016 0.000000 -0.951057
vn -0.587785 0.000000 -0.809017
vn -0.587785 0.000000 -0.809017
vn -0.809017 0.000000 -0.587785
vn -0.809017 0.000000 -0.587785
vn -0.951057 0.000000 -0.309016
vn -0.951057 0.000000 -0.309016
s 1
g pPipe1
# usemtl initialShadingGroup
f 2/2/1 1/1/2 22/23/3
f 22/23/3 1/1/2 21/22/4
f 3/3/5 2/2/1 23/24/6
f 23/24/6 2/2/1 22/23/3
f 4/4/7 3/3/5 24/25/8
f 24/25/8 3/3/5 23/24/6
f 5/5/9 4/4/7 25/26/10
f 25/26/10 4/4/7 24/25/8
f 6/6/11 5/5/9 26/27/12
f 26/27/12 5/5/9 25/26/10
f 7/7/13 6/6/11 27/28/14
f 27/28/14 6/6/11 26/27/12
f 8/8/15 7/7/13 28/29/16
f 28/29/16 7/7/13 27/28/14
f 9/9/17 8/8/15 29/30/18
f 29/30/18 8/8/15 28/29/16
f 10/10/19 9/9/17 30/31/20
f 30/31/20 9/9/17 29/30/18
f 11/43/21 10/10/19 31/32/22
f 31/32/22 10/10/19 30/31/20
f 12/12/23 11/11/21 32/33/24
f 32/33/24 11/11/21 31/44/22
f 13/13/25 12/12/23 33/34/26
f 33/34/26 12/12/23 32/33/24
f 14/14/27 13/13/25 34/35/28
f 34/35/28 13/13/25 33/34/26
f 15/15/29 14/14/27 35/36/30
f 35/36/30 14/14/27 34/35/28
f 16/16/31 15/15/29 36/37/32
f 36/37/32 15/15/29 35/36/30
f 17/17/33 16/16/31 37/38/34
f 37/38/34 16/16/31 36/37/32
f 18/18/35 17/17/33 38/39/36
f 38/39/36 17/17/33 37/38/34
f 19/19/37 18/18/35 39/40/38
f 39/40/38 18/18/35 38/39/36
f 20/20/39 19/19/37 40/41/40
f 40/41/40 19/19/37 39/40/38
f 1/21/2 20/20/39 21/42/4
f 21/42/4 20/20/39 40/41/40
